<svg xmlns="http://www.w3.org/2000/svg" xmlns:xlink="http://www.w3.org/1999/xlink" width="43" zoomAndPan="magnify" viewBox="0 0 32.25 35.250001" height="47" preserveAspectRatio="xMidYMid meet" version="1.0"><defs><g/><clipPath id="2b4bffcd28"><path d="M 0 0.0351562 L 26 0.0351562 L 26 34.484375 L 0 34.484375 Z M 0 0.0351562 " clip-rule="nonzero"/></clipPath><clipPath id="b85751ca83"><path d="M 0 0.0351562 L 25 0.0351562 L 25 23 L 0 23 Z M 0 0.0351562 " clip-rule="nonzero"/></clipPath><clipPath id="29af8d8129"><rect x="0" width="26" y="0" height="35"/></clipPath><clipPath id="1e72be1561"><path d="M 8 0.0351562 L 31.515625 0.0351562 L 31.515625 34.484375 L 8 34.484375 Z M 8 0.0351562 " clip-rule="nonzero"/></clipPath><clipPath id="3e32989192"><path d="M 2 11 L 23.515625 11 L 23.515625 34.484375 L 2 34.484375 Z M 2 11 " clip-rule="nonzero"/></clipPath><clipPath id="aecacb280d"><rect x="0" width="24" y="0" height="35"/></clipPath></defs><g clip-path="url(#2b4bffcd28)"><g transform="matrix(1, 0, 0, 1, 0, 0.000000000000009721)"><g clip-path="url(#29af8d8129)"><g clip-path="url(#b85751ca83)"><g fill="#000000" fill-opacity="1"><g transform="translate(0, 19.749331)"><g><path d="M 0.5625 -11.328125 L 0.5 -11.859375 C 0.59375 -12.796875 1.132812 -13.722656 2.125 -14.640625 C 3.113281 -15.554688 4.363281 -16.425781 5.875 -17.25 C 7.394531 -18.070312 9.800781 -18.757812 13.09375 -19.3125 C 14.96875 -19.601562 16.535156 -19.75 17.796875 -19.75 C 19.054688 -19.75 20.164062 -19.644531 21.125 -19.4375 C 22.082031 -19.226562 22.875 -18.8125 23.5 -18.1875 C 24.125 -17.5625 24.4375 -16.816406 24.4375 -15.953125 C 24.4375 -15.097656 24.070312 -14.289062 23.34375 -13.53125 C 22.625 -12.78125 21.71875 -12.203125 20.625 -11.796875 C 18.507812 -11.015625 16.476562 -10.582031 14.53125 -10.5 C 15.488281 -9.914062 16.28125 -9.40625 16.90625 -8.96875 C 17.53125 -8.539062 18.195312 -7.96875 18.90625 -7.25 C 19.625 -6.539062 20.082031 -5.925781 20.28125 -5.40625 C 20.488281 -4.894531 20.59375 -4.441406 20.59375 -4.046875 C 20.59375 -2.734375 20.085938 -1.472656 19.078125 -0.265625 C 18.410156 0.554688 17.476562 1.210938 16.28125 1.703125 C 15.09375 2.191406 13.832031 2.4375 12.5 2.4375 C 9.644531 2.4375 8.085938 1.4375 7.828125 -0.5625 C 7.773438 -0.613281 7.75 -0.679688 7.75 -0.765625 C 6.90625 0.585938 6.203125 1.265625 5.640625 1.265625 C 5.492188 1.265625 5.242188 1.222656 4.890625 1.140625 C 4.546875 1.066406 4.367188 0.984375 4.359375 0.890625 C 4.347656 0.804688 4.34375 0.617188 4.34375 0.328125 C 4.34375 0.046875 4.550781 -0.644531 4.96875 -1.75 C 5.394531 -2.851562 5.878906 -3.941406 6.421875 -5.015625 C 7.460938 -7.015625 8.5 -8.953125 9.53125 -10.828125 C 9.707031 -11.234375 9.796875 -11.535156 9.796875 -11.734375 C 9.796875 -11.929688 9.785156 -12.085938 9.765625 -12.203125 C 9.847656 -12.828125 10.382812 -13.644531 11.375 -14.65625 C 12.375 -15.664062 13.273438 -16.171875 14.078125 -16.171875 C 14.335938 -16.171875 14.691406 -16.070312 15.140625 -15.875 C 15.585938 -15.675781 15.851562 -15.398438 15.9375 -15.046875 C 15.957031 -14.890625 15.960938 -14.789062 15.953125 -14.75 C 15.941406 -14.71875 15.878906 -14.722656 15.765625 -14.765625 C 15.660156 -14.816406 15.597656 -14.84375 15.578125 -14.84375 C 14.859375 -14.84375 14.003906 -14.3125 13.015625 -13.25 C 12.023438 -12.195312 11.070312 -10.898438 10.15625 -9.359375 C 8.257812 -6.234375 6.898438 -3.671875 6.078125 -1.671875 C 5.898438 -1.222656 5.8125 -0.878906 5.8125 -0.640625 C 5.8125 -0.304688 5.957031 -0.140625 6.25 -0.140625 C 6.539062 -0.140625 6.929688 -0.441406 7.421875 -1.046875 C 7.910156 -1.660156 8.253906 -1.960938 8.453125 -1.953125 C 8.648438 -1.941406 8.8125 -1.878906 8.9375 -1.765625 C 9.0625 -1.660156 9.144531 -1.546875 9.1875 -1.421875 C 9.238281 -1.296875 9.273438 -1.117188 9.296875 -0.890625 C 9.316406 -0.671875 9.335938 -0.53125 9.359375 -0.46875 C 9.710938 1.113281 10.835938 1.90625 12.734375 1.90625 C 12.773438 1.90625 12.820312 1.90625 12.875 1.90625 C 14.40625 1.90625 15.71875 1.546875 16.8125 0.828125 C 18.007812 0.0234375 18.609375 -0.96875 18.609375 -2.15625 C 18.609375 -3.34375 18.050781 -4.597656 16.9375 -5.921875 C 16.582031 -6.316406 16.0625 -6.816406 15.375 -7.421875 C 13.90625 -8.691406 13.144531 -9.503906 13.09375 -9.859375 C 13.050781 -10.210938 13.203125 -10.503906 13.546875 -10.734375 C 13.898438 -10.972656 14.21875 -11.09375 14.5 -11.09375 C 15.59375 -11.09375 17.085938 -11.484375 18.984375 -12.265625 C 21.765625 -13.398438 23.257812 -14.660156 23.46875 -16.046875 C 23.46875 -16.128906 23.46875 -16.195312 23.46875 -16.25 C 23.46875 -16.644531 23.285156 -17.019531 22.921875 -17.375 C 22.328125 -18.019531 21.0625 -18.34375 19.125 -18.34375 C 16.46875 -18.34375 13.378906 -17.863281 9.859375 -16.90625 C 7.722656 -16.332031 5.84375 -15.507812 4.21875 -14.4375 C 2.425781 -13.257812 1.53125 -12 1.53125 -10.65625 C 1.53125 -10.375 1.617188 -10.09375 1.796875 -9.8125 C 1.984375 -9.53125 2.191406 -9.328125 2.421875 -9.203125 C 2.660156 -9.085938 2.96875 -8.957031 3.34375 -8.8125 C 3.71875 -8.664062 3.988281 -8.550781 4.15625 -8.46875 C 4.320312 -8.394531 4.378906 -8.300781 4.328125 -8.1875 C 4.273438 -8.070312 4.113281 -8.039062 3.84375 -8.09375 C 3.101562 -8.132812 2.363281 -8.4375 1.625 -9 C 0.894531 -9.570312 0.53125 -10.238281 0.53125 -11 C 0.53125 -11.101562 0.539062 -11.210938 0.5625 -11.328125 Z M 0.5625 -11.328125 "/></g></g></g></g></g></g></g><g clip-path="url(#1e72be1561)"><g transform="matrix(1, 0, 0, 1, 8, 0.000000000000009721)"><g clip-path="url(#aecacb280d)"><g clip-path="url(#3e32989192)"><g fill="#986b3f" fill-opacity="1"><g transform="translate(0.306239, 30.266185)"><g><path d="M 4.421875 3.953125 C 3.679688 3.953125 3.050781 3.84375 2.53125 3.625 C 2.007812 3.414062 1.75 3.117188 1.75 2.734375 C 1.75 2.390625 1.976562 2.050781 2.4375 1.71875 C 2.90625 1.382812 3.769531 0.960938 5.03125 0.453125 C 6.289062 -0.046875 8.160156 -0.703125 10.640625 -1.515625 C 10.179688 -2.484375 8.984375 -3.53125 7.046875 -4.65625 C 5.765625 -5.351562 4.707031 -6.109375 3.875 -6.921875 C 3.039062 -7.734375 2.738281 -8.800781 2.96875 -10.125 C 3.195312 -11.289062 3.863281 -12.414062 4.96875 -13.5 C 6.082031 -14.582031 7.421875 -15.550781 8.984375 -16.40625 C 10.554688 -17.257812 12.1875 -17.9375 13.875 -18.4375 C 15.5625 -18.945312 17.085938 -19.203125 18.453125 -19.203125 C 19.921875 -19.203125 21.003906 -18.898438 21.703125 -18.296875 C 22.398438 -17.691406 22.648438 -16.828125 22.453125 -15.703125 C 22.109375 -13.734375 20.773438 -11.953125 18.453125 -10.359375 C 18.410156 -10.316406 18.332031 -10.296875 18.21875 -10.296875 C 17.976562 -10.296875 17.859375 -10.394531 17.859375 -10.59375 C 17.859375 -10.664062 17.914062 -10.757812 18.03125 -10.875 C 20.28125 -12.425781 21.539062 -14.078125 21.8125 -15.828125 C 22.125 -17.648438 21.003906 -18.5625 18.453125 -18.5625 C 17.128906 -18.5625 15.648438 -18.316406 14.015625 -17.828125 C 12.390625 -17.347656 10.828125 -16.695312 9.328125 -15.875 C 7.835938 -15.0625 6.566406 -14.148438 5.515625 -13.140625 C 4.472656 -12.140625 3.859375 -11.097656 3.671875 -10.015625 C 3.472656 -8.921875 3.722656 -8.023438 4.421875 -7.328125 C 5.117188 -6.628906 6.085938 -5.929688 7.328125 -5.234375 C 8.378906 -4.617188 9.234375 -4.03125 9.890625 -3.46875 C 10.546875 -2.90625 11.007812 -2.3125 11.28125 -1.6875 L 12.6875 -2.15625 L 22.640625 -5.53125 C 22.640625 -5.53125 22.644531 -5.53125 22.65625 -5.53125 C 22.675781 -5.53125 22.707031 -5.53125 22.75 -5.53125 C 22.945312 -5.53125 23.046875 -5.410156 23.046875 -5.171875 C 23.046875 -5.023438 22.96875 -4.929688 22.8125 -4.890625 C 20.90625 -4.234375 19.117188 -3.625 17.453125 -3.0625 C 15.785156 -2.5 14.273438 -1.984375 12.921875 -1.515625 L 11.46875 -1.046875 C 11.769531 -0.304688 11.582031 0.445312 10.90625 1.21875 C 10.226562 2 9.296875 2.648438 8.109375 3.171875 C 6.929688 3.691406 5.703125 3.953125 4.421875 3.953125 Z M 4.421875 3.3125 C 5.429688 3.3125 6.4375 3.117188 7.4375 2.734375 C 8.445312 2.347656 9.28125 1.863281 9.9375 1.28125 C 10.601562 0.695312 10.9375 0.113281 10.9375 -0.46875 C 10.9375 -0.625 10.914062 -0.757812 10.875 -0.875 C 8.59375 -0.09375 6.835938 0.523438 5.609375 0.984375 C 4.390625 1.453125 3.554688 1.8125 3.109375 2.0625 C 2.660156 2.3125 2.4375 2.535156 2.4375 2.734375 C 2.4375 2.890625 2.617188 3.023438 2.984375 3.140625 C 3.359375 3.253906 3.835938 3.3125 4.421875 3.3125 Z M 4.421875 3.3125 "/></g></g></g></g></g></g></g></svg>