<svg xmlns="http://www.w3.org/2000/svg" xmlns:xlink="http://www.w3.org/1999/xlink" width="40" zoomAndPan="magnify" viewBox="0 0 30 32.999998" height="44" preserveAspectRatio="xMidYMid meet" version="1.0"><defs><g/><clipPath id="f5f6f8625a"><path d="M 0.238281 4 L 15 4 L 15 18 L 0.238281 18 Z M 0.238281 4 " clip-rule="nonzero"/></clipPath><clipPath id="a03a9c4924"><rect x="0" width="16" y="0" height="26"/></clipPath><clipPath id="bd84be590e"><rect x="0" width="14" y="0" height="33"/></clipPath></defs><g transform="matrix(1, 0, 0, 1, 6, 1)"><g clip-path="url(#a03a9c4924)"><g clip-path="url(#f5f6f8625a)"><g fill="#000000" fill-opacity="1"><g transform="translate(0.292063, 16.138629)"><g><path d="M 0.34375 -6.734375 L 0.296875 -7.046875 C 0.347656 -7.597656 0.664062 -8.144531 1.25 -8.6875 C 1.84375 -9.226562 2.585938 -9.742188 3.484375 -10.234375 C 4.390625 -10.722656 5.820312 -11.132812 7.78125 -11.46875 C 8.894531 -11.644531 9.820312 -11.734375 10.5625 -11.734375 C 11.3125 -11.734375 11.96875 -11.664062 12.53125 -11.53125 C 13.101562 -11.40625 13.570312 -11.15625 13.9375 -10.78125 C 14.3125 -10.414062 14.5 -9.976562 14.5 -9.46875 C 14.5 -8.96875 14.285156 -8.488281 13.859375 -8.03125 C 13.429688 -7.582031 12.894531 -7.238281 12.25 -7 C 10.988281 -6.539062 9.78125 -6.285156 8.625 -6.234375 C 9.195312 -5.890625 9.664062 -5.585938 10.03125 -5.328125 C 10.40625 -5.066406 10.800781 -4.722656 11.21875 -4.296875 C 11.644531 -3.878906 11.914062 -3.519531 12.03125 -3.21875 C 12.15625 -2.914062 12.21875 -2.644531 12.21875 -2.40625 C 12.21875 -1.625 11.921875 -0.875 11.328125 -0.15625 C 10.929688 0.332031 10.378906 0.722656 9.671875 1.015625 C 8.960938 1.304688 8.210938 1.453125 7.421875 1.453125 C 5.722656 1.453125 4.796875 0.851562 4.640625 -0.34375 C 4.617188 -0.363281 4.609375 -0.398438 4.609375 -0.453125 C 4.097656 0.347656 3.679688 0.75 3.359375 0.75 C 3.265625 0.75 3.113281 0.722656 2.90625 0.671875 C 2.695312 0.628906 2.585938 0.582031 2.578125 0.53125 C 2.578125 0.476562 2.578125 0.363281 2.578125 0.1875 C 2.578125 0.0195312 2.703125 -0.390625 2.953125 -1.046875 C 3.203125 -1.703125 3.488281 -2.347656 3.8125 -2.984375 C 4.4375 -4.171875 5.050781 -5.316406 5.65625 -6.421875 C 5.757812 -6.660156 5.8125 -6.835938 5.8125 -6.953125 C 5.8125 -7.078125 5.804688 -7.175781 5.796875 -7.25 C 5.847656 -7.613281 6.164062 -8.097656 6.75 -8.703125 C 7.34375 -9.304688 7.878906 -9.609375 8.359375 -9.609375 C 8.515625 -9.609375 8.722656 -9.546875 8.984375 -9.421875 C 9.253906 -9.304688 9.414062 -9.144531 9.46875 -8.9375 C 9.476562 -8.84375 9.476562 -8.785156 9.46875 -8.765625 C 9.46875 -8.742188 9.429688 -8.742188 9.359375 -8.765625 C 9.296875 -8.796875 9.257812 -8.8125 9.25 -8.8125 C 8.820312 -8.8125 8.3125 -8.492188 7.71875 -7.859375 C 7.132812 -7.234375 6.570312 -6.46875 6.03125 -5.5625 C 4.90625 -3.707031 4.097656 -2.1875 3.609375 -1 C 3.503906 -0.726562 3.453125 -0.519531 3.453125 -0.375 C 3.453125 -0.175781 3.535156 -0.078125 3.703125 -0.078125 C 3.878906 -0.078125 4.113281 -0.257812 4.40625 -0.625 C 4.695312 -0.988281 4.898438 -1.164062 5.015625 -1.15625 C 5.140625 -1.15625 5.238281 -1.117188 5.3125 -1.046875 C 5.382812 -0.984375 5.429688 -0.914062 5.453125 -0.84375 C 5.484375 -0.769531 5.503906 -0.664062 5.515625 -0.53125 C 5.523438 -0.40625 5.539062 -0.320312 5.5625 -0.28125 C 5.769531 0.65625 6.4375 1.125 7.5625 1.125 C 7.582031 1.125 7.609375 1.125 7.640625 1.125 C 8.554688 1.125 9.335938 0.914062 9.984375 0.5 C 10.691406 0.0195312 11.046875 -0.570312 11.046875 -1.28125 C 11.046875 -1.988281 10.71875 -2.734375 10.0625 -3.515625 C 9.851562 -3.753906 9.539062 -4.050781 9.125 -4.40625 C 8.25 -5.15625 7.796875 -5.632812 7.765625 -5.84375 C 7.742188 -6.0625 7.835938 -6.238281 8.046875 -6.375 C 8.253906 -6.519531 8.441406 -6.59375 8.609375 -6.59375 C 9.253906 -6.59375 10.140625 -6.820312 11.265625 -7.28125 C 12.921875 -7.957031 13.8125 -8.707031 13.9375 -9.53125 C 13.9375 -9.582031 13.9375 -9.617188 13.9375 -9.640625 C 13.9375 -9.878906 13.828125 -10.101562 13.609375 -10.3125 C 13.253906 -10.695312 12.5 -10.890625 11.34375 -10.890625 C 9.769531 -10.890625 7.941406 -10.609375 5.859375 -10.046875 C 4.585938 -9.703125 3.46875 -9.210938 2.5 -8.578125 C 1.4375 -7.867188 0.90625 -7.117188 0.90625 -6.328125 C 0.90625 -6.160156 0.957031 -5.992188 1.0625 -5.828125 C 1.175781 -5.660156 1.300781 -5.539062 1.4375 -5.46875 C 1.570312 -5.394531 1.753906 -5.3125 1.984375 -5.21875 C 2.210938 -5.132812 2.375 -5.070312 2.46875 -5.03125 C 2.570312 -4.988281 2.601562 -4.929688 2.5625 -4.859375 C 2.53125 -4.796875 2.4375 -4.773438 2.28125 -4.796875 C 1.84375 -4.828125 1.40625 -5.007812 0.96875 -5.34375 C 0.53125 -5.6875 0.3125 -6.082031 0.3125 -6.53125 C 0.3125 -6.59375 0.320312 -6.660156 0.34375 -6.734375 Z M 0.34375 -6.734375 "/></g></g></g></g></g></g><g transform="matrix(1, 0, 0, 1, 12, 0.000000000000004502)"><g clip-path="url(#bd84be590e)"><g fill="#986b3f" fill-opacity="1"><g transform="translate(0.783772, 22.132683)"><g><path d="M 2.296875 2.046875 C 1.910156 2.046875 1.582031 1.988281 1.3125 1.875 C 1.039062 1.769531 0.90625 1.617188 0.90625 1.421875 C 0.90625 1.234375 1.023438 1.054688 1.265625 0.890625 C 1.503906 0.722656 1.953125 0.503906 2.609375 0.234375 C 3.265625 -0.0234375 4.234375 -0.363281 5.515625 -0.78125 C 5.273438 -1.28125 4.65625 -1.820312 3.65625 -2.40625 C 2.988281 -2.769531 2.4375 -3.160156 2 -3.578125 C 1.570312 -4.003906 1.414062 -4.5625 1.53125 -5.25 C 1.65625 -5.851562 2.003906 -6.4375 2.578125 -7 C 3.148438 -7.5625 3.84375 -8.0625 4.65625 -8.5 C 5.476562 -8.945312 6.328125 -9.300781 7.203125 -9.5625 C 8.078125 -9.820312 8.863281 -9.953125 9.5625 -9.953125 C 10.332031 -9.953125 10.894531 -9.796875 11.25 -9.484375 C 11.613281 -9.171875 11.742188 -8.722656 11.640625 -8.140625 C 11.460938 -7.117188 10.769531 -6.195312 9.5625 -5.375 C 9.539062 -5.351562 9.5 -5.34375 9.4375 -5.34375 C 9.320312 -5.34375 9.265625 -5.390625 9.265625 -5.484375 C 9.265625 -5.523438 9.296875 -5.578125 9.359375 -5.640625 C 10.523438 -6.441406 11.175781 -7.296875 11.3125 -8.203125 C 11.476562 -9.148438 10.894531 -9.625 9.5625 -9.625 C 8.875 -9.625 8.109375 -9.5 7.265625 -9.25 C 6.421875 -9 5.613281 -8.660156 4.84375 -8.234375 C 4.070312 -7.816406 3.410156 -7.34375 2.859375 -6.8125 C 2.316406 -6.289062 2 -5.75 1.90625 -5.1875 C 1.800781 -4.625 1.929688 -4.160156 2.296875 -3.796875 C 2.660156 -3.441406 3.160156 -3.082031 3.796875 -2.71875 C 4.335938 -2.394531 4.78125 -2.085938 5.125 -1.796875 C 5.46875 -1.503906 5.710938 -1.195312 5.859375 -0.875 L 6.578125 -1.109375 L 11.734375 -2.859375 C 11.734375 -2.859375 11.738281 -2.859375 11.75 -2.859375 C 11.757812 -2.859375 11.773438 -2.859375 11.796875 -2.859375 C 11.898438 -2.859375 11.953125 -2.800781 11.953125 -2.6875 C 11.953125 -2.601562 11.910156 -2.550781 11.828125 -2.53125 C 10.835938 -2.1875 9.910156 -1.867188 9.046875 -1.578125 C 8.179688 -1.285156 7.398438 -1.019531 6.703125 -0.78125 L 5.9375 -0.546875 C 6.101562 -0.160156 6.007812 0.226562 5.65625 0.625 C 5.300781 1.03125 4.816406 1.367188 4.203125 1.640625 C 3.585938 1.910156 2.953125 2.046875 2.296875 2.046875 Z M 2.296875 1.71875 C 2.816406 1.71875 3.335938 1.613281 3.859375 1.40625 C 4.378906 1.207031 4.8125 0.957031 5.15625 0.65625 C 5.5 0.363281 5.671875 0.0664062 5.671875 -0.234375 C 5.671875 -0.316406 5.660156 -0.390625 5.640625 -0.453125 C 4.453125 -0.046875 3.539062 0.273438 2.90625 0.515625 C 2.28125 0.753906 1.847656 0.9375 1.609375 1.0625 C 1.378906 1.195312 1.265625 1.316406 1.265625 1.421875 C 1.265625 1.492188 1.359375 1.5625 1.546875 1.625 C 1.742188 1.6875 1.992188 1.71875 2.296875 1.71875 Z M 2.296875 1.71875 "/></g></g></g></g></g></svg>